<svg width="26" height="26" viewBox="0 0 26 26" fill="none" xmlns="http://www.w3.org/2000/svg">
<mask id="mask0_1_78" style="mask-type:alpha" maskUnits="userSpaceOnUse" x="0" y="0" width="26" height="26">
<rect width="26" height="26" fill="#D9D9D9"/>
</mask>
<g mask="url(#mask0_1_78)">
<path d="M6.49999 22.75C5.68749 22.75 4.88402 22.5514 4.08957 22.1542C3.29513 21.7569 2.65416 21.2333 2.16666 20.5833C2.6361 20.5833 3.11457 20.3983 3.60207 20.0281C4.08957 19.658 4.33332 19.1208 4.33332 18.4167C4.33332 17.5139 4.6493 16.7465 5.28124 16.1146C5.91318 15.4826 6.68055 15.1667 7.58332 15.1667C8.4861 15.1667 9.25346 15.4826 9.88541 16.1146C10.5174 16.7465 10.8333 17.5139 10.8333 18.4167C10.8333 19.6083 10.409 20.6285 9.56041 21.4771C8.7118 22.3257 7.69166 22.75 6.49999 22.75ZM6.49999 20.5833C7.09582 20.5833 7.60589 20.3712 8.0302 19.9469C8.4545 19.5226 8.66666 19.0125 8.66666 18.4167C8.66666 18.1097 8.56284 17.8524 8.3552 17.6448C8.14756 17.4372 7.89027 17.3333 7.58332 17.3333C7.27638 17.3333 7.01909 17.4372 6.81145 17.6448C6.60381 17.8524 6.49999 18.1097 6.49999 18.4167C6.49999 18.8319 6.45034 19.2111 6.35103 19.5542C6.25173 19.8972 6.12082 20.2222 5.95832 20.5292C6.0486 20.5653 6.13888 20.5833 6.22916 20.5833H6.49999ZM12.7292 16.25L9.74999 13.2708L19.4458 3.575C19.6444 3.37639 19.8927 3.27257 20.1906 3.26354C20.4885 3.25451 20.7458 3.35833 20.9625 3.575L22.425 5.0375C22.6417 5.25417 22.75 5.50695 22.75 5.79583C22.75 6.08472 22.6417 6.3375 22.425 6.55417L12.7292 16.25Z" fill="#4C28E7"/>
</g>
</svg>
