<svg width="48" height="48" viewBox="0 0 48 48" fill="none" xmlns="http://www.w3.org/2000/svg">
<mask id="mask0_315_574" style="mask-type:alpha" maskUnits="userSpaceOnUse" x="0" y="0" width="48" height="48">
<rect width="48" height="48" fill="#D9D9D9"/>
</mask>
<g mask="url(#mask0_315_574)">
<path d="M28 42C27.6 42 27.25 41.85 26.95 41.55C26.65 41.25 26.5 40.9 26.5 40.5C26.5 40.0667 26.65 39.7083 26.95 39.425C27.25 39.1417 27.6 39 28 39C29.9667 39 31.625 38.6 32.975 37.8C34.325 37 35 36.0667 35 35C35 34.2333 34.5083 33.4833 33.525 32.75C32.5417 32.0167 31.2167 31.45 29.55 31.05L31.9 28.7C34 29.3333 35.5417 30.2083 36.525 31.325C37.5083 32.4417 38 33.6667 38 35C38 37.2333 36.9833 38.9583 34.95 40.175C32.9167 41.3917 30.6 42 28 42ZM12 27.3C9.86667 26.8333 8.33333 26.1 7.4 25.1C6.46667 24.1 6 23.0667 6 22C6 20.8333 6.43333 19.7833 7.3 18.85C8.16667 17.9167 10.1667 16.8833 13.3 15.75C15.5 14.95 16.9167 14.3 17.55 13.8C18.1833 13.3 18.5 12.7167 18.5 12.05C18.5 11.2167 18.1333 10.5 17.4 9.9C16.6667 9.3 15.5333 9 14 9C13.1 9 12.3333 9.11667 11.7 9.35C11.0667 9.58333 10.5 9.95 10 10.45C9.73333 10.7167 9.39167 10.875 8.975 10.925C8.55833 10.975 8.18333 10.8667 7.85 10.6C7.48333 10.3333 7.29167 10 7.275 9.6C7.25833 9.2 7.38333 8.85 7.65 8.55C8.21667 7.81667 9.06667 7.20833 10.2 6.725C11.3333 6.24167 12.6 6 14 6C16.2667 6 18.0833 6.54167 19.45 7.625C20.8167 8.70833 21.5 10.1833 21.5 12.05C21.5 13.4167 21.025 14.575 20.075 15.525C19.125 16.475 17.2667 17.4667 14.5 18.5C12.2667 19.3333 10.7917 19.9917 10.075 20.475C9.35833 20.9583 9 21.4667 9 22C9 22.5333 9.45 23.0417 10.35 23.525C11.25 24.0083 12.6 24.4667 14.4 24.9L12 27.3ZM36.8 19.6L30.4 13.2L32.65 10.95C33.25 10.35 33.9167 10.05 34.65 10.05C35.3833 10.05 36.05 10.35 36.65 10.95L39.05 13.35C39.65 13.95 39.95 14.6167 39.95 15.35C39.95 16.0833 39.65 16.75 39.05 17.35L36.8 19.6ZM8 42V35.6L28.25 15.35L34.65 21.75L14.4 42H8Z" fill="#1C1B1F"/>
</g>
</svg>
