<svg width="30" height="30" viewBox="0 0 51 50" fill="none" xmlns="http://www.w3.org/2000/svg">
<path d="M8.01113 5H43.5861C44.8111 5 45.7861 5.975 45.7861 7.2V42.8C45.7861 44 44.8111 45 43.5861 45H33.3861V29.5H38.5861L39.3611 23.475H33.3861V19.625C33.3861 17.875 33.8861 16.675 36.3861 16.675H39.5861V11.275C39.0361 11.2 37.1361 11.05 34.9361 11.05C30.3111 11.05 27.1611 13.85 27.1611 19.025V23.475H21.9361V29.5H27.1611V45H8.01113C6.78613 45 5.78613 44 5.78613 42.8V7.2C5.78613 5.975 6.78613 5 8.01113 5Z" fill="#F7F5F3"/>
</svg>
