<svg width="48" height="48" viewBox="0 0 48 48" fill="none" xmlns="http://www.w3.org/2000/svg">
<mask id="mask0_315_586" style="mask-type:alpha" maskUnits="userSpaceOnUse" x="0" y="0" width="48" height="48">
<rect width="48" height="48" fill="#D9D9D9"/>
</mask>
<g mask="url(#mask0_315_586)">
<path d="M4.45 35.55L2 33.75L11.4 18.75L17.4 25.75L25.35 12.85L30.8 20.95C30.2667 21.0167 29.75 21.125 29.25 21.275C28.75 21.425 28.25 21.6 27.75 21.8L25.5 18.35L17.85 30.8L11.8 23.75L4.45 35.55ZM43.85 46L37.15 39.3C36.45 39.8 35.6917 40.1833 34.875 40.45C34.0583 40.7167 33.2167 40.85 32.35 40.85C29.9833 40.85 27.975 40.025 26.325 38.375C24.675 36.725 23.85 34.7167 23.85 32.35C23.85 29.9833 24.675 27.975 26.325 26.325C27.975 24.675 29.9833 23.85 32.35 23.85C34.7167 23.85 36.725 24.675 38.375 26.325C40.025 27.975 40.85 29.9833 40.85 32.35C40.85 33.2167 40.7083 34.0583 40.425 34.875C40.1417 35.6917 39.7667 36.4667 39.3 37.2L46 43.85L43.85 46ZM32.35 37.85C33.8833 37.85 35.1833 37.3167 36.25 36.25C37.3167 35.1833 37.85 33.8833 37.85 32.35C37.85 30.8167 37.3167 29.5167 36.25 28.45C35.1833 27.3833 33.8833 26.85 32.35 26.85C30.8167 26.85 29.5167 27.3833 28.45 28.45C27.3833 29.5167 26.85 30.8167 26.85 32.35C26.85 33.8833 27.3833 35.1833 28.45 36.25C29.5167 37.3167 30.8167 37.85 32.35 37.85ZM36.05 21.45C35.55 21.25 35.0333 21.1167 34.5 21.05C33.9667 20.9833 33.4167 20.9167 32.85 20.85L43.55 4L46 5.8L36.05 21.45Z" fill="#1C1B1F"/>
</g>
</svg>
