<svg width="52" height="52" viewBox="0 0 52 52" fill="none" xmlns="http://www.w3.org/2000/svg">
<mask id="mask0_261_516" style="mask-type:alpha" maskUnits="userSpaceOnUse" x="0" y="0" width="52" height="52">
<rect width="52" height="52" fill="#D9D9D9"/>
</mask>
<g mask="url(#mask0_261_516)">
<path d="M2 42V29.6037H11.9158V32.1207H14.8211V29.6037H37.1789V32.1207H40.0842V29.6037H50V42H2ZM2 17.9626C2 16.9558 2.35789 16.0958 3.07368 15.3827C3.78947 14.6695 4.65263 14.3129 5.66316 14.3129H14V8.58673C14 7.62188 14.3579 6.78288 15.0737 6.06973C15.7895 5.35658 16.6526 5 17.6632 5H34.3368C35.3474 5 36.2105 5.35658 36.9263 6.06973C37.6421 6.78288 38 7.62188 38 8.58673V14.3129H46.3368C47.3474 14.3129 48.2105 14.6695 48.9263 15.3827C49.6421 16.0958 50 16.9558 50 17.9626V27.8418H40.0842V24.1922H37.1789V27.8418H14.8211V24.1922H11.9158V27.8418H2V17.9626ZM16.8421 14.3129H35.1579V8.58673C35.1579 8.37698 35.0842 8.1987 34.9368 8.05187C34.7895 7.90504 34.5895 7.83163 34.3368 7.83163H17.6632C17.4105 7.83163 17.2105 7.90504 17.0632 8.05187C16.9158 8.1987 16.8421 8.37698 16.8421 8.58673V14.3129Z" fill="#161718"/>
</g>
</svg>
