<svg width="30" height="30" viewBox="0 0 51 51" fill="none" xmlns="http://www.w3.org/2000/svg">
<path d="M33.5103 25.213C33.5103 20.531 29.7603 16.7853 25.0728 16.7853C20.3853 16.7853 16.6353 20.531 16.6353 25.213C16.6353 29.895 20.3853 33.6406 25.0728 33.6406C29.7603 33.6406 33.5103 29.895 33.5103 25.213ZM37.8853 25.213C37.8853 32.3921 32.2603 38.0105 25.0728 38.0105C17.8853 38.0105 12.2603 32.3921 12.2603 25.213C12.2603 18.0339 17.8853 12.4155 25.0728 12.4155C32.2603 12.4155 37.8853 18.0339 37.8853 25.213ZM41.3228 11.7912C41.3228 13.664 40.0728 14.9125 38.1978 14.9125C36.3228 14.9125 35.0728 13.664 35.0728 11.7912C35.0728 9.91838 36.3228 8.66984 38.1978 8.66984C40.0728 8.66984 41.3228 10.2305 41.3228 11.7912ZM25.0728 4.61208C21.3228 4.61208 13.5103 4.29994 10.3853 5.54848C8.19775 6.48489 6.32275 8.3577 5.69775 10.5426C4.44775 13.664 4.76025 21.4674 4.76025 25.213C4.76025 28.9586 4.44775 36.762 5.69775 39.8833C6.32275 42.0683 8.19775 43.9411 10.3853 44.5654C13.5103 45.8139 21.6353 45.5018 25.0728 45.5018C28.5103 45.5018 36.6353 45.8139 39.7603 44.5654C41.9478 43.629 43.5103 42.0683 44.4478 39.8833C45.6978 36.4499 45.3853 28.6465 45.3853 25.213C45.3853 21.7795 45.6978 13.664 44.4478 10.5426C43.8228 8.3577 41.9478 6.48489 39.7603 5.86062C36.6353 4.29994 28.8228 4.61208 25.0728 4.61208ZM50.0728 25.213V35.5135C50.0728 39.2591 48.8228 43.0047 46.0103 46.1261C43.1978 48.9353 39.4478 50.1838 35.3853 50.1838H14.7603C11.0103 50.1838 7.26025 48.9353 4.13525 46.1261C1.63525 43.3168 0.0727539 39.5712 0.0727539 35.5135V25.213V14.9125C0.0727539 10.8548 1.63525 7.10916 4.13525 4.29994C7.26025 1.80286 11.0103 0.242188 14.7603 0.242188H35.3853C39.1353 0.242188 42.8853 1.49073 46.0103 4.29994C48.5103 7.10916 50.0728 10.8548 50.0728 14.9125V25.213Z" fill="#F7F5F3"/>
</svg>
