<svg width="52" height="52" viewBox="0 0 52 52" fill="none" xmlns="http://www.w3.org/2000/svg">
<mask id="mask0_261_504" style="mask-type:alpha" maskUnits="userSpaceOnUse" x="0" y="0" width="52" height="52">
<rect width="52" height="52" fill="#D9D9D9"/>
</mask>
<g mask="url(#mask0_261_504)">
<path d="M6.45 42C5.53 42 4.725 41.6476 4.035 40.9429C3.345 40.2381 3 39.4476 3 38.5714V13.4286C3 12.5143 3.345 11.7143 4.035 11.0286C4.725 10.3429 5.53 10 6.45 10H45.55C46.47 10 47.275 10.3429 47.965 11.0286C48.655 11.7143 49 12.5143 49 13.4286V38.5714C49 39.4476 48.655 40.2381 47.965 40.9429C47.275 41.6476 46.47 42 45.55 42H6.45ZM15.65 34.8571H36.35V31.4286H15.65V34.8571ZM10.0725 27.7143H13.5225V24.2857H10.0725V27.7143ZM17.2025 27.7143H20.6525V24.2857H17.2025V27.7143ZM24.275 27.7143H27.725V24.2857H24.275V27.7143ZM31.405 27.7143H34.855V24.2857H31.405V27.7143ZM38.4775 27.7143H41.9275V24.2857H38.4775V27.7143ZM10.0725 20.5714H13.5225V17.1429H10.0725V20.5714ZM17.2025 20.5714H20.6525V17.1429H17.2025V20.5714ZM24.275 20.5714H27.725V17.1429H24.275V20.5714ZM31.405 20.5714H34.855V17.1429H31.405V20.5714ZM38.4775 20.5714H41.9275V17.1429H38.4775V20.5714Z" fill="#161718"/>
</g>
</svg>
