<svg width="200" height="45" viewBox="0 0 271 45" fill="none" xmlns="http://www.w3.org/2000/svg">
<path d="M24.3834 45C24.3014 44.9602 24.2209 44.9187 24.1422 44.8755C23.1605 44.3164 22.3751 43.5376 21.7861 42.5391C21.1971 41.5407 20.6866 40.3825 20.2547 39.0645L15 23.2143C15 23.2143 10.9541 37.6779 8.91876 44.9996C8.94581 44.9999 8.97289 45 9 45H24.3834Z" fill="#DCBEFF"/>
<path d="M1.04052 40.2047L10.8893 12.6451L10.2414 10.7281C9.6131 8.85097 8.70994 7.67278 7.53191 7.19352C6.39314 6.71425 5.05804 6.47462 3.5266 6.47462C2.85905 6.47462 2.2504 6.51456 1.70065 6.59444C1.29008 6.65409 0.747643 6.79667 0.199656 7.10592C0.0688515 7.7166 0 8.35026 0 9V36C0 37.5188 0.376209 38.9497 1.04052 40.2047Z" fill="#DCBEFF"/>
<path d="M10.6244 0L36 6.50944e-08C40.9706 6.50944e-08 45 4.02944 45 9V36C45 36.7526 44.9076 37.4837 44.7336 38.1825C41.5478 38.2113 31.4597 38.2258 31.0926 38.2258C30.5428 38.2258 30.052 38.086 29.62 37.8064C29.2273 37.4869 28.815 36.9078 28.3831 36.0691C27.9904 35.1904 27.4799 33.9324 26.8516 32.2949L18.0753 8.45158C17.1721 6.01533 16.1315 4.13822 14.9535 2.82024C13.8147 1.50227 12.4404 0.583686 10.8304 0.0644839C10.7623 0.0425249 10.6937 0.0210303 10.6244 0Z" fill="#DCBEFF"/>
<path d="M62.624 33V12.756H66.292V33H62.624ZM77.438 33.28C76.206 33.28 75.0953 32.972 74.106 32.356C73.1166 31.74 72.342 30.9 71.782 29.836C71.222 28.772 70.942 27.5773 70.942 26.252C70.942 24.908 71.222 23.704 71.782 22.64C72.342 21.576 73.1166 20.736 74.106 20.12C75.0953 19.504 76.206 19.196 77.438 19.196C78.4086 19.196 79.2766 19.392 80.042 19.784C80.8073 20.176 81.414 20.7267 81.862 21.436C82.3286 22.1267 82.5806 22.9107 82.618 23.788V28.66C82.5806 29.556 82.3286 30.3493 81.862 31.04C81.414 31.7307 80.8073 32.2813 80.042 32.692C79.2766 33.084 78.4086 33.28 77.438 33.28ZM78.11 29.892C79.1366 29.892 79.9673 29.556 80.602 28.884C81.2366 28.1933 81.554 27.3067 81.554 26.224C81.554 25.5147 81.4046 24.8893 81.106 24.348C80.826 23.788 80.4246 23.3587 79.902 23.06C79.398 22.7427 78.8006 22.584 78.11 22.584C77.438 22.584 76.8406 22.7427 76.318 23.06C75.814 23.3587 75.4126 23.788 75.114 24.348C74.834 24.8893 74.694 25.5147 74.694 26.224C74.694 26.952 74.834 27.596 75.114 28.156C75.4126 28.6973 75.814 29.1267 76.318 29.444C76.8406 29.7427 77.438 29.892 78.11 29.892ZM81.358 33V29.36L81.946 26.056L81.358 22.808V19.476H84.998V33H81.358ZM90.4829 33V19.476H94.1509V33H90.4829ZM99.3029 33V25.02C99.3029 24.236 99.0509 23.6293 98.5469 23.2C98.0616 22.752 97.4549 22.528 96.7269 22.528C96.2416 22.528 95.8029 22.6307 95.4109 22.836C95.0189 23.0227 94.7109 23.3027 94.4869 23.676C94.2629 24.0493 94.1509 24.4973 94.1509 25.02L92.7229 24.32C92.7229 23.2747 92.9469 22.3693 93.3949 21.604C93.8616 20.8387 94.4869 20.2507 95.2709 19.84C96.0549 19.4107 96.9416 19.196 97.9309 19.196C98.8642 19.196 99.7136 19.4107 100.479 19.84C101.244 20.2507 101.851 20.8387 102.299 21.604C102.747 22.3507 102.971 23.256 102.971 24.32V33H99.3029ZM108.123 33V25.02C108.123 24.236 107.871 23.6293 107.367 23.2C106.882 22.752 106.275 22.528 105.547 22.528C105.08 22.528 104.642 22.6307 104.231 22.836C103.839 23.0227 103.531 23.3027 103.307 23.676C103.083 24.0493 102.971 24.4973 102.971 25.02L100.871 24.516C100.946 23.4333 101.235 22.5 101.739 21.716C102.243 20.9133 102.906 20.2973 103.727 19.868C104.548 19.42 105.463 19.196 106.471 19.196C107.479 19.196 108.384 19.4107 109.187 19.84C109.99 20.2507 110.624 20.848 111.091 21.632C111.558 22.416 111.791 23.3493 111.791 24.432V33H108.123ZM124.508 33.28C123.537 33.28 122.66 33.0747 121.876 32.664C121.092 32.2533 120.467 31.6933 120 30.984C119.533 30.2747 119.281 29.4813 119.244 28.604V23.788C119.281 22.9107 119.533 22.1267 120 21.436C120.485 20.7267 121.12 20.176 121.904 19.784C122.688 19.392 123.556 19.196 124.508 19.196C125.759 19.196 126.879 19.504 127.868 20.12C128.857 20.736 129.632 21.576 130.192 22.64C130.771 23.704 131.06 24.908 131.06 26.252C131.06 27.5773 130.771 28.772 130.192 29.836C129.632 30.9 128.857 31.74 127.868 32.356C126.879 32.972 125.759 33.28 124.508 33.28ZM123.892 29.892C124.564 29.892 125.152 29.7427 125.656 29.444C126.179 29.1267 126.58 28.6973 126.86 28.156C127.159 27.596 127.308 26.952 127.308 26.224C127.308 25.5147 127.159 24.8893 126.86 24.348C126.58 23.788 126.179 23.3587 125.656 23.06C125.133 22.7427 124.536 22.584 123.864 22.584C123.192 22.584 122.595 22.7427 122.072 23.06C121.568 23.3587 121.167 23.788 120.868 24.348C120.588 24.8893 120.448 25.5147 120.448 26.224C120.448 26.952 120.588 27.596 120.868 28.156C121.167 28.6973 121.577 29.1267 122.1 29.444C122.623 29.7427 123.22 29.892 123.892 29.892ZM117.004 33V12.756H120.672V22.808L120.056 26.056L120.644 29.36V33H117.004ZM141.417 33.28C140.166 33.28 139.046 32.972 138.057 32.356C137.068 31.74 136.284 30.9 135.705 29.836C135.145 28.772 134.865 27.5773 134.865 26.252C134.865 24.908 135.145 23.704 135.705 22.64C136.284 21.576 137.058 20.736 138.029 20.12C139.018 19.504 140.148 19.196 141.417 19.196C142.388 19.196 143.256 19.392 144.021 19.784C144.805 20.176 145.43 20.7267 145.897 21.436C146.382 22.1267 146.644 22.9107 146.681 23.788V28.604C146.644 29.4813 146.392 30.2747 145.925 30.984C145.458 31.6933 144.833 32.2533 144.049 32.664C143.265 33.0747 142.388 33.28 141.417 33.28ZM142.033 29.892C142.724 29.892 143.321 29.7427 143.825 29.444C144.348 29.1267 144.749 28.6973 145.029 28.156C145.328 27.596 145.477 26.952 145.477 26.224C145.477 25.5147 145.328 24.8893 145.029 24.348C144.749 23.788 144.348 23.3587 143.825 23.06C143.321 22.7427 142.733 22.584 142.061 22.584C141.37 22.584 140.764 22.7427 140.241 23.06C139.737 23.3773 139.336 23.8067 139.037 24.348C138.757 24.8893 138.617 25.5147 138.617 26.224C138.617 26.952 138.757 27.596 139.037 28.156C139.336 28.6973 139.746 29.1267 140.269 29.444C140.792 29.7427 141.38 29.892 142.033 29.892ZM148.921 33H145.281V29.36L145.869 26.056L145.253 22.808V12.756H148.921V33ZM160.062 33.28C158.83 33.28 157.719 32.972 156.73 32.356C155.741 31.74 154.966 30.9 154.406 29.836C153.846 28.772 153.566 27.5773 153.566 26.252C153.566 24.908 153.846 23.704 154.406 22.64C154.966 21.576 155.741 20.736 156.73 20.12C157.719 19.504 158.83 19.196 160.062 19.196C161.033 19.196 161.901 19.392 162.666 19.784C163.431 20.176 164.038 20.7267 164.486 21.436C164.953 22.1267 165.205 22.9107 165.242 23.788V28.66C165.205 29.556 164.953 30.3493 164.486 31.04C164.038 31.7307 163.431 32.2813 162.666 32.692C161.901 33.084 161.033 33.28 160.062 33.28ZM160.734 29.892C161.761 29.892 162.591 29.556 163.226 28.884C163.861 28.1933 164.178 27.3067 164.178 26.224C164.178 25.5147 164.029 24.8893 163.73 24.348C163.45 23.788 163.049 23.3587 162.526 23.06C162.022 22.7427 161.425 22.584 160.734 22.584C160.062 22.584 159.465 22.7427 158.942 23.06C158.438 23.3587 158.037 23.788 157.738 24.348C157.458 24.8893 157.318 25.5147 157.318 26.224C157.318 26.952 157.458 27.596 157.738 28.156C158.037 28.6973 158.438 29.1267 158.942 29.444C159.465 29.7427 160.062 29.892 160.734 29.892ZM163.982 33V29.36L164.57 26.056L163.982 22.808V19.476H167.622V33H163.982Z" fill="#F7F5F3"/>
<path d="M180.588 33.28C179.375 33.28 178.283 32.9813 177.312 32.384C176.341 31.7867 175.567 30.9747 174.988 29.948C174.428 28.9027 174.148 27.736 174.148 26.448C174.148 25.1413 174.428 23.9747 174.988 22.948C175.567 21.9027 176.341 21.0813 177.312 20.484C178.283 19.868 179.375 19.56 180.588 19.56C181.577 19.56 182.473 19.756 183.276 20.148C184.079 20.54 184.741 21.1 185.264 21.828C185.805 22.5373 186.123 23.3773 186.216 24.348V28.464C186.104 29.416 185.787 30.256 185.264 30.984C184.76 31.6933 184.107 32.2533 183.304 32.664C182.501 33.0747 181.596 33.28 180.588 33.28ZM180.924 31.404C181.839 31.404 182.641 31.1987 183.332 30.788C184.023 30.3587 184.564 29.7707 184.956 29.024C185.348 28.2587 185.544 27.3907 185.544 26.42C185.544 25.4307 185.339 24.5627 184.928 23.816C184.536 23.0693 183.995 22.4813 183.304 22.052C182.613 21.6227 181.811 21.408 180.896 21.408C179.981 21.408 179.169 21.6227 178.46 22.052C177.751 22.4813 177.191 23.0787 176.78 23.844C176.388 24.5907 176.192 25.4493 176.192 26.42C176.192 27.3907 176.388 28.2587 176.78 29.024C177.191 29.7707 177.751 30.3587 178.46 30.788C179.188 31.1987 180.009 31.404 180.924 31.404ZM187.392 33H185.432V29.472L185.824 26.224L185.432 23.06V13.176H187.392V33ZM193.607 33V19.84H195.595V33H193.607ZM194.587 16.984C194.214 16.984 193.896 16.8533 193.635 16.592C193.374 16.312 193.243 15.9853 193.243 15.612C193.243 15.22 193.374 14.8933 193.635 14.632C193.896 14.3707 194.214 14.24 194.587 14.24C194.998 14.24 195.324 14.3707 195.567 14.632C195.828 14.8933 195.959 15.22 195.959 15.612C195.959 15.9853 195.828 16.312 195.567 16.592C195.324 16.8533 194.998 16.984 194.587 16.984ZM207.24 38.824C205.915 38.824 204.729 38.572 203.684 38.068C202.657 37.5827 201.827 36.892 201.192 35.996L202.48 34.708C203.003 35.4173 203.665 35.968 204.468 36.36C205.271 36.752 206.213 36.948 207.296 36.948C208.789 36.948 209.975 36.5467 210.852 35.744C211.748 34.9413 212.196 33.8493 212.196 32.468V29.192L212.588 26.196L212.196 23.228V19.84H214.156V32.468C214.156 33.7373 213.867 34.848 213.288 35.8C212.709 36.752 211.897 37.4893 210.852 38.012C209.825 38.5533 208.621 38.824 207.24 38.824ZM207.38 32.86C206.167 32.86 205.075 32.5707 204.104 31.992C203.133 31.4133 202.368 30.62 201.808 29.612C201.248 28.604 200.968 27.4653 200.968 26.196C200.968 24.9267 201.239 23.7973 201.78 22.808C202.34 21.8 203.105 21.0067 204.076 20.428C205.047 19.8493 206.139 19.56 207.352 19.56C208.379 19.56 209.293 19.756 210.096 20.148C210.917 20.54 211.571 21.1 212.056 21.828C212.56 22.5373 212.868 23.3773 212.98 24.348V28.072C212.868 29.024 212.56 29.864 212.056 30.592C211.552 31.3013 210.899 31.8613 210.096 32.272C209.293 32.664 208.388 32.86 207.38 32.86ZM207.744 30.984C208.659 30.984 209.452 30.788 210.124 30.396C210.815 30.004 211.347 29.4533 211.72 28.744C212.112 28.016 212.308 27.1667 212.308 26.196C212.308 25.244 212.112 24.4133 211.72 23.704C211.347 22.9947 210.815 22.4347 210.124 22.024C209.433 21.6133 208.631 21.408 207.716 21.408C206.801 21.408 205.98 21.6133 205.252 22.024C204.543 22.4347 203.983 22.9947 203.572 23.704C203.18 24.4133 202.984 25.244 202.984 26.196C202.984 27.1293 203.189 27.96 203.6 28.688C204.011 29.416 204.571 29.9853 205.28 30.396C205.989 30.788 206.811 30.984 207.744 30.984ZM220.345 33V19.84H222.333V33H220.345ZM221.325 16.984C220.951 16.984 220.634 16.8533 220.373 16.592C220.111 16.312 219.981 15.9853 219.981 15.612C219.981 15.22 220.111 14.8933 220.373 14.632C220.634 14.3707 220.951 14.24 221.325 14.24C221.735 14.24 222.062 14.3707 222.305 14.632C222.566 14.8933 222.697 15.22 222.697 15.612C222.697 15.9853 222.566 16.312 222.305 16.592C222.062 16.8533 221.735 16.984 221.325 16.984ZM230.59 33V14.296H232.55V33H230.59ZM227.258 21.604V19.84H235.854V21.604H227.258ZM246.041 33.28C244.79 33.28 243.67 32.9813 242.681 32.384C241.691 31.768 240.907 30.9467 240.329 29.92C239.769 28.8933 239.489 27.736 239.489 26.448C239.489 25.1413 239.769 23.9747 240.329 22.948C240.907 21.9027 241.691 21.0813 242.681 20.484C243.67 19.868 244.781 19.56 246.013 19.56C247.021 19.56 247.917 19.7653 248.701 20.176C249.503 20.568 250.147 21.128 250.633 21.856C251.137 22.5653 251.445 23.396 251.557 24.348V28.464C251.445 29.416 251.137 30.256 250.633 30.984C250.147 31.712 249.503 32.2813 248.701 32.692C247.917 33.084 247.03 33.28 246.041 33.28ZM246.349 31.404C247.711 31.404 248.803 30.9467 249.625 30.032C250.465 29.1173 250.885 27.9133 250.885 26.42C250.885 25.4307 250.689 24.5627 250.297 23.816C249.923 23.0507 249.391 22.4627 248.701 22.052C248.029 21.6227 247.235 21.408 246.321 21.408C245.387 21.408 244.557 21.6227 243.829 22.052C243.119 22.4813 242.55 23.0787 242.121 23.844C241.71 24.5907 241.505 25.4493 241.505 26.42C241.505 27.3907 241.71 28.2493 242.121 28.996C242.55 29.7427 243.129 30.3307 243.857 30.76C244.585 31.1893 245.415 31.404 246.349 31.404ZM250.773 33V29.472L251.165 26.224L250.773 23.06V19.84H252.733V33H250.773ZM258.948 33V13.176H260.908V33H258.948Z" fill="#F7F5F3"/>
</svg>
