<svg width="45" height="45" viewBox="0 0 45 45" fill="none" xmlns="http://www.w3.org/2000/svg">
<path d="M24.3834 45C24.3014 44.9602 24.2209 44.9187 24.1422 44.8755C23.1605 44.3164 22.3751 43.5376 21.7861 42.5391C21.1971 41.5407 20.6866 40.3825 20.2547 39.0645L15 23.2143C15 23.2143 10.9541 37.6779 8.91876 44.9996C8.94581 44.9999 8.97289 45 9 45H24.3834Z" fill="#967EFF"/>
<path d="M1.04052 40.2047L10.8893 12.6451L10.2414 10.7281C9.6131 8.85097 8.70994 7.67278 7.53191 7.19352C6.39314 6.71425 5.05804 6.47462 3.5266 6.47462C2.85905 6.47462 2.2504 6.51456 1.70065 6.59444C1.29008 6.65409 0.747643 6.79667 0.199656 7.10592C0.0688515 7.7166 0 8.35026 0 9V36C0 37.5188 0.376209 38.9497 1.04052 40.2047Z" fill="#967EFF"/>
<path d="M10.6244 0L36 6.50944e-08C40.9706 6.50944e-08 45 4.02944 45 9V36C45 36.7526 44.9076 37.4837 44.7336 38.1825C41.5478 38.2113 31.4597 38.2258 31.0926 38.2258C30.5428 38.2258 30.052 38.086 29.62 37.8064C29.2273 37.4869 28.815 36.9078 28.3831 36.0691C27.9904 35.1904 27.4799 33.9324 26.8516 32.2949L18.0753 8.45158C17.1721 6.01533 16.1315 4.13822 14.9535 2.82024C13.8147 1.50227 12.4404 0.583686 10.8304 0.0644839C10.7623 0.0425249 10.6937 0.0210303 10.6244 0Z" fill="#967EFF"/>
</svg>
