<svg width="173" height="56" viewBox="0 0 173 56" fill="none" xmlns="http://www.w3.org/2000/svg">
<path d="M24.3834 48.5C24.3014 48.4602 24.2209 48.4187 24.1422 48.3755C23.1605 47.8164 22.3751 47.0376 21.7861 46.0391C21.1971 45.0407 20.6866 43.8825 20.2547 42.5645L15 26.7143C15 26.7143 10.9541 41.1779 8.91876 48.4996C8.94581 48.4999 8.97289 48.5 9 48.5H24.3834Z" fill="#967EFF"/>
<path d="M1.04052 43.7047L10.8893 16.1451L10.2414 14.2281C9.6131 12.351 8.70994 11.1728 7.53191 10.6935C6.39314 10.2143 5.05804 9.97462 3.5266 9.97462C2.85905 9.97462 2.2504 10.0146 1.70065 10.0944C1.29008 10.1541 0.747643 10.2967 0.199656 10.6059C0.0688515 11.2166 0 11.8503 0 12.5V39.5C0 41.0188 0.376209 42.4497 1.04052 43.7047Z" fill="#967EFF"/>
<path d="M10.6244 3.5L36 3.5C40.9706 3.5 45 7.52944 45 12.5V39.5C45 40.2526 44.9076 40.9837 44.7336 41.6825C41.5478 41.7113 31.4597 41.7258 31.0926 41.7258C30.5428 41.7258 30.052 41.586 29.62 41.3064C29.2273 40.9869 28.815 40.4078 28.3831 39.5691C27.9904 38.6904 27.4799 37.4324 26.8516 35.7949L18.0753 11.9516C17.1721 9.51533 16.1315 7.63822 14.9535 6.32024C13.8147 5.00227 12.4404 4.08369 10.8304 3.56448C10.7623 3.54252 10.6937 3.52103 10.6244 3.5Z" fill="#967EFF"/>
<path d="M62.624 25.5V5.256H66.292V25.5H62.624ZM77.438 25.78C76.206 25.78 75.0953 25.472 74.106 24.856C73.1166 24.24 72.342 23.4 71.782 22.336C71.222 21.272 70.942 20.0773 70.942 18.752C70.942 17.408 71.222 16.204 71.782 15.14C72.342 14.076 73.1166 13.236 74.106 12.62C75.0953 12.004 76.206 11.696 77.438 11.696C78.4086 11.696 79.2766 11.892 80.042 12.284C80.8073 12.676 81.414 13.2267 81.862 13.936C82.3286 14.6267 82.5806 15.4107 82.618 16.288V21.16C82.5806 22.056 82.3286 22.8493 81.862 23.54C81.414 24.2307 80.8073 24.7813 80.042 25.192C79.2766 25.584 78.4086 25.78 77.438 25.78ZM78.11 22.392C79.1366 22.392 79.9673 22.056 80.602 21.384C81.2366 20.6933 81.554 19.8067 81.554 18.724C81.554 18.0147 81.4046 17.3893 81.106 16.848C80.826 16.288 80.4246 15.8587 79.902 15.56C79.398 15.2427 78.8006 15.084 78.11 15.084C77.438 15.084 76.8406 15.2427 76.318 15.56C75.814 15.8587 75.4126 16.288 75.114 16.848C74.834 17.3893 74.694 18.0147 74.694 18.724C74.694 19.452 74.834 20.096 75.114 20.656C75.4126 21.1973 75.814 21.6267 76.318 21.944C76.8406 22.2427 77.438 22.392 78.11 22.392ZM81.358 25.5V21.86L81.946 18.556L81.358 15.308V11.976H84.998V25.5H81.358ZM90.4829 25.5V11.976H94.1509V25.5H90.4829ZM99.3029 25.5V17.52C99.3029 16.736 99.0509 16.1293 98.5469 15.7C98.0616 15.252 97.4549 15.028 96.7269 15.028C96.2416 15.028 95.8029 15.1307 95.4109 15.336C95.0189 15.5227 94.7109 15.8027 94.4869 16.176C94.2629 16.5493 94.1509 16.9973 94.1509 17.52L92.7229 16.82C92.7229 15.7747 92.9469 14.8693 93.3949 14.104C93.8616 13.3387 94.4869 12.7507 95.2709 12.34C96.0549 11.9107 96.9416 11.696 97.9309 11.696C98.8642 11.696 99.7136 11.9107 100.479 12.34C101.244 12.7507 101.851 13.3387 102.299 14.104C102.747 14.8507 102.971 15.756 102.971 16.82V25.5H99.3029ZM108.123 25.5V17.52C108.123 16.736 107.871 16.1293 107.367 15.7C106.882 15.252 106.275 15.028 105.547 15.028C105.08 15.028 104.642 15.1307 104.231 15.336C103.839 15.5227 103.531 15.8027 103.307 16.176C103.083 16.5493 102.971 16.9973 102.971 17.52L100.871 17.016C100.946 15.9333 101.235 15 101.739 14.216C102.243 13.4133 102.906 12.7973 103.727 12.368C104.548 11.92 105.463 11.696 106.471 11.696C107.479 11.696 108.384 11.9107 109.187 12.34C109.99 12.7507 110.624 13.348 111.091 14.132C111.558 14.916 111.791 15.8493 111.791 16.932V25.5H108.123ZM124.508 25.78C123.537 25.78 122.66 25.5747 121.876 25.164C121.092 24.7533 120.467 24.1933 120 23.484C119.533 22.7747 119.281 21.9813 119.244 21.104V16.288C119.281 15.4107 119.533 14.6267 120 13.936C120.485 13.2267 121.12 12.676 121.904 12.284C122.688 11.892 123.556 11.696 124.508 11.696C125.759 11.696 126.879 12.004 127.868 12.62C128.857 13.236 129.632 14.076 130.192 15.14C130.771 16.204 131.06 17.408 131.06 18.752C131.06 20.0773 130.771 21.272 130.192 22.336C129.632 23.4 128.857 24.24 127.868 24.856C126.879 25.472 125.759 25.78 124.508 25.78ZM123.892 22.392C124.564 22.392 125.152 22.2427 125.656 21.944C126.179 21.6267 126.58 21.1973 126.86 20.656C127.159 20.096 127.308 19.452 127.308 18.724C127.308 18.0147 127.159 17.3893 126.86 16.848C126.58 16.288 126.179 15.8587 125.656 15.56C125.133 15.2427 124.536 15.084 123.864 15.084C123.192 15.084 122.595 15.2427 122.072 15.56C121.568 15.8587 121.167 16.288 120.868 16.848C120.588 17.3893 120.448 18.0147 120.448 18.724C120.448 19.452 120.588 20.096 120.868 20.656C121.167 21.1973 121.577 21.6267 122.1 21.944C122.623 22.2427 123.22 22.392 123.892 22.392ZM117.004 25.5V5.256H120.672V15.308L120.056 18.556L120.644 21.86V25.5H117.004ZM141.417 25.78C140.166 25.78 139.046 25.472 138.057 24.856C137.068 24.24 136.284 23.4 135.705 22.336C135.145 21.272 134.865 20.0773 134.865 18.752C134.865 17.408 135.145 16.204 135.705 15.14C136.284 14.076 137.058 13.236 138.029 12.62C139.018 12.004 140.148 11.696 141.417 11.696C142.388 11.696 143.256 11.892 144.021 12.284C144.805 12.676 145.43 13.2267 145.897 13.936C146.382 14.6267 146.644 15.4107 146.681 16.288V21.104C146.644 21.9813 146.392 22.7747 145.925 23.484C145.458 24.1933 144.833 24.7533 144.049 25.164C143.265 25.5747 142.388 25.78 141.417 25.78ZM142.033 22.392C142.724 22.392 143.321 22.2427 143.825 21.944C144.348 21.6267 144.749 21.1973 145.029 20.656C145.328 20.096 145.477 19.452 145.477 18.724C145.477 18.0147 145.328 17.3893 145.029 16.848C144.749 16.288 144.348 15.8587 143.825 15.56C143.321 15.2427 142.733 15.084 142.061 15.084C141.37 15.084 140.764 15.2427 140.241 15.56C139.737 15.8773 139.336 16.3067 139.037 16.848C138.757 17.3893 138.617 18.0147 138.617 18.724C138.617 19.452 138.757 20.096 139.037 20.656C139.336 21.1973 139.746 21.6267 140.269 21.944C140.792 22.2427 141.38 22.392 142.033 22.392ZM148.921 25.5H145.281V21.86L145.869 18.556L145.253 15.308V5.256H148.921V25.5ZM160.062 25.78C158.83 25.78 157.719 25.472 156.73 24.856C155.741 24.24 154.966 23.4 154.406 22.336C153.846 21.272 153.566 20.0773 153.566 18.752C153.566 17.408 153.846 16.204 154.406 15.14C154.966 14.076 155.741 13.236 156.73 12.62C157.719 12.004 158.83 11.696 160.062 11.696C161.033 11.696 161.901 11.892 162.666 12.284C163.431 12.676 164.038 13.2267 164.486 13.936C164.953 14.6267 165.205 15.4107 165.242 16.288V21.16C165.205 22.056 164.953 22.8493 164.486 23.54C164.038 24.2307 163.431 24.7813 162.666 25.192C161.901 25.584 161.033 25.78 160.062 25.78ZM160.734 22.392C161.761 22.392 162.591 22.056 163.226 21.384C163.861 20.6933 164.178 19.8067 164.178 18.724C164.178 18.0147 164.029 17.3893 163.73 16.848C163.45 16.288 163.049 15.8587 162.526 15.56C162.022 15.2427 161.425 15.084 160.734 15.084C160.062 15.084 159.465 15.2427 158.942 15.56C158.438 15.8587 158.037 16.288 157.738 16.848C157.458 17.3893 157.318 18.0147 157.318 18.724C157.318 19.452 157.458 20.096 157.738 20.656C158.037 21.1973 158.438 21.6267 158.942 21.944C159.465 22.2427 160.062 22.392 160.734 22.392ZM163.982 25.5V21.86L164.57 18.556L163.982 15.308V11.976H167.622V25.5H163.982Z" fill="#161718"/>
<path d="M68.588 49.78C67.3747 49.78 66.2827 49.4813 65.312 48.884C64.3413 48.2867 63.5667 47.4747 62.988 46.448C62.428 45.4027 62.148 44.236 62.148 42.948C62.148 41.6413 62.428 40.4747 62.988 39.448C63.5667 38.4027 64.3413 37.5813 65.312 36.984C66.2827 36.368 67.3747 36.06 68.588 36.06C69.5773 36.06 70.4733 36.256 71.276 36.648C72.0787 37.04 72.7413 37.6 73.264 38.328C73.8053 39.0373 74.1227 39.8773 74.216 40.848V44.964C74.104 45.916 73.7867 46.756 73.264 47.484C72.76 48.1933 72.1067 48.7533 71.304 49.164C70.5013 49.5747 69.596 49.78 68.588 49.78ZM68.924 47.904C69.8387 47.904 70.6413 47.6987 71.332 47.288C72.0227 46.8587 72.564 46.2707 72.956 45.524C73.348 44.7587 73.544 43.8907 73.544 42.92C73.544 41.9307 73.3387 41.0627 72.928 40.316C72.536 39.5693 71.9947 38.9813 71.304 38.552C70.6133 38.1227 69.8107 37.908 68.896 37.908C67.9813 37.908 67.1693 38.1227 66.46 38.552C65.7507 38.9813 65.1907 39.5787 64.78 40.344C64.388 41.0907 64.192 41.9493 64.192 42.92C64.192 43.8907 64.388 44.7587 64.78 45.524C65.1907 46.2707 65.7507 46.8587 66.46 47.288C67.188 47.6987 68.0093 47.904 68.924 47.904ZM75.392 49.5H73.432V45.972L73.824 42.724L73.432 39.56V29.676H75.392V49.5ZM81.6069 49.5V36.34H83.5949V49.5H81.6069ZM82.5869 33.484C82.2136 33.484 81.8962 33.3533 81.6349 33.092C81.3736 32.812 81.2429 32.4853 81.2429 32.112C81.2429 31.72 81.3736 31.3933 81.6349 31.132C81.8962 30.8707 82.2136 30.74 82.5869 30.74C82.9976 30.74 83.3242 30.8707 83.5669 31.132C83.8282 31.3933 83.9589 31.72 83.9589 32.112C83.9589 32.4853 83.8282 32.812 83.5669 33.092C83.3242 33.3533 82.9976 33.484 82.5869 33.484ZM95.2398 55.324C93.9145 55.324 92.7292 55.072 91.6838 54.568C90.6572 54.0827 89.8265 53.392 89.1918 52.496L90.4798 51.208C91.0025 51.9173 91.6652 52.468 92.4678 52.86C93.2705 53.252 94.2132 53.448 95.2958 53.448C96.7892 53.448 97.9745 53.0467 98.8518 52.244C99.7478 51.4413 100.196 50.3493 100.196 48.968V45.692L100.588 42.696L100.196 39.728V36.34H102.156V48.968C102.156 50.2373 101.867 51.348 101.288 52.3C100.709 53.252 99.8972 53.9893 98.8518 54.512C97.8252 55.0533 96.6212 55.324 95.2398 55.324ZM95.3798 49.36C94.1665 49.36 93.0745 49.0707 92.1038 48.492C91.1332 47.9133 90.3678 47.12 89.8078 46.112C89.2478 45.104 88.9678 43.9653 88.9678 42.696C88.9678 41.4267 89.2385 40.2973 89.7798 39.308C90.3398 38.3 91.1052 37.5067 92.0758 36.928C93.0465 36.3493 94.1385 36.06 95.3518 36.06C96.3785 36.06 97.2932 36.256 98.0958 36.648C98.9172 37.04 99.5705 37.6 100.056 38.328C100.56 39.0373 100.868 39.8773 100.98 40.848V44.572C100.868 45.524 100.56 46.364 100.056 47.092C99.5518 47.8013 98.8985 48.3613 98.0958 48.772C97.2932 49.164 96.3878 49.36 95.3798 49.36ZM95.7438 47.484C96.6585 47.484 97.4518 47.288 98.1238 46.896C98.8145 46.504 99.3465 45.9533 99.7198 45.244C100.112 44.516 100.308 43.6667 100.308 42.696C100.308 41.744 100.112 40.9133 99.7198 40.204C99.3465 39.4947 98.8145 38.9347 98.1238 38.524C97.4332 38.1133 96.6305 37.908 95.7158 37.908C94.8012 37.908 93.9798 38.1133 93.2518 38.524C92.5425 38.9347 91.9825 39.4947 91.5718 40.204C91.1798 40.9133 90.9838 41.744 90.9838 42.696C90.9838 43.6293 91.1892 44.46 91.5998 45.188C92.0105 45.916 92.5705 46.4853 93.2798 46.896C93.9892 47.288 94.8105 47.484 95.7438 47.484ZM108.345 49.5V36.34H110.333V49.5H108.345ZM109.325 33.484C108.951 33.484 108.634 33.3533 108.373 33.092C108.111 32.812 107.981 32.4853 107.981 32.112C107.981 31.72 108.111 31.3933 108.373 31.132C108.634 30.8707 108.951 30.74 109.325 30.74C109.735 30.74 110.062 30.8707 110.305 31.132C110.566 31.3933 110.697 31.72 110.697 32.112C110.697 32.4853 110.566 32.812 110.305 33.092C110.062 33.3533 109.735 33.484 109.325 33.484ZM118.59 49.5V30.796H120.55V49.5H118.59ZM115.258 38.104V36.34H123.854V38.104H115.258ZM134.041 49.78C132.79 49.78 131.67 49.4813 130.681 48.884C129.691 48.268 128.907 47.4467 128.329 46.42C127.769 45.3933 127.489 44.236 127.489 42.948C127.489 41.6413 127.769 40.4747 128.329 39.448C128.907 38.4027 129.691 37.5813 130.681 36.984C131.67 36.368 132.781 36.06 134.013 36.06C135.021 36.06 135.917 36.2653 136.701 36.676C137.503 37.068 138.147 37.628 138.633 38.356C139.137 39.0653 139.445 39.896 139.557 40.848V44.964C139.445 45.916 139.137 46.756 138.633 47.484C138.147 48.212 137.503 48.7813 136.701 49.192C135.917 49.584 135.03 49.78 134.041 49.78ZM134.349 47.904C135.711 47.904 136.803 47.4467 137.625 46.532C138.465 45.6173 138.885 44.4133 138.885 42.92C138.885 41.9307 138.689 41.0627 138.297 40.316C137.923 39.5507 137.391 38.9627 136.701 38.552C136.029 38.1227 135.235 37.908 134.321 37.908C133.387 37.908 132.557 38.1227 131.829 38.552C131.119 38.9813 130.55 39.5787 130.121 40.344C129.71 41.0907 129.505 41.9493 129.505 42.92C129.505 43.8907 129.71 44.7493 130.121 45.496C130.55 46.2427 131.129 46.8307 131.857 47.26C132.585 47.6893 133.415 47.904 134.349 47.904ZM138.773 49.5V45.972L139.165 42.724L138.773 39.56V36.34H140.733V49.5H138.773ZM146.948 49.5V29.676H148.908V49.5H146.948Z" fill="#161718"/>
</svg>
