<svg width="26" height="26" viewBox="0 0 26 26" fill="none" xmlns="http://www.w3.org/2000/svg">
<mask id="mask0_1_66" style="mask-type:alpha" maskUnits="userSpaceOnUse" x="0" y="0" width="26" height="26">
<rect width="26" height="26" fill="#D9D9D9"/>
</mask>
<g mask="url(#mask0_1_66)">
<path d="M20.0688 9.75L18.8771 7.15L16.2771 5.95833L18.8771 4.76667L20.0688 2.16667L21.2604 4.76667L23.8604 5.95833L21.2604 7.15L20.0688 9.75ZM22.2354 17.3333L21.3688 15.4917L19.5271 14.625L21.3688 13.7583L22.2354 11.9167L23.1021 13.7583L24.9438 14.625L23.1021 15.4917L22.2354 17.3333ZM8.1521 23.8333L7.8271 21.2875C7.68265 21.2333 7.54272 21.1611 7.40731 21.0708C7.27189 20.9806 7.15904 20.8903 7.06876 20.8L4.68543 21.8292L2.00418 17.1167L4.03543 15.6V14.7333L2.00418 13.2167L4.68543 8.50417L7.06876 9.53333C7.15904 9.44306 7.27189 9.35278 7.40731 9.2625C7.54272 9.17222 7.68265 9.1 7.8271 9.04583L8.1521 6.5H13.5688L13.8938 9.04583C14.0382 9.1 14.1781 9.17222 14.3136 9.2625C14.449 9.35278 14.5618 9.44306 14.6521 9.53333L17.0354 8.50417L19.7167 13.2167L17.6854 14.7333V15.6L19.7167 17.1167L17.0354 21.8292L14.6521 20.8C14.5618 20.8903 14.449 20.9806 14.3136 21.0708C14.1781 21.1611 14.0382 21.2333 13.8938 21.2875L13.5688 23.8333H8.1521ZM10.8604 18.4167C11.7632 18.4167 12.5306 18.1007 13.1625 17.4688C13.7945 16.8368 14.1104 16.0694 14.1104 15.1667C14.1104 14.2639 13.7945 13.4965 13.1625 12.8646C12.5306 12.2326 11.7632 11.9167 10.8604 11.9167C9.95765 11.9167 9.19029 12.2326 8.55835 12.8646C7.9264 13.4965 7.61043 14.2639 7.61043 15.1667C7.61043 16.0694 7.9264 16.8368 8.55835 17.4688C9.19029 18.1007 9.95765 18.4167 10.8604 18.4167ZM10.8604 16.25C10.5535 16.25 10.2962 16.1462 10.0886 15.9385C9.88092 15.7309 9.7771 15.4736 9.7771 15.1667C9.7771 14.8597 9.88092 14.6024 10.0886 14.3948C10.2962 14.1872 10.5535 14.0833 10.8604 14.0833C11.1674 14.0833 11.4247 14.1872 11.6323 14.3948C11.8399 14.6024 11.9438 14.8597 11.9438 15.1667C11.9438 15.4736 11.8399 15.7309 11.6323 15.9385C11.4247 16.1462 11.1674 16.25 10.8604 16.25ZM10.0479 21.6667H11.6729L11.8896 19.7167C12.4132 19.5722 12.8601 19.3872 13.2302 19.1615C13.6004 18.9358 13.966 18.6333 14.3271 18.2542L16.1146 19.0667L16.8729 17.7125L15.3021 16.5208C15.4465 16.1056 15.5188 15.6542 15.5188 15.1667C15.5188 14.6792 15.4465 14.2278 15.3021 13.8125L16.8729 12.6208L16.1146 11.2667L14.3271 12.0792C13.966 11.7 13.6004 11.3976 13.2302 11.1719C12.8601 10.9462 12.4132 10.7611 11.8896 10.6167L11.6729 8.66667H10.0479L9.83127 10.6167C9.30765 10.7611 8.86078 10.9462 8.49064 11.1719C8.1205 11.3976 7.75488 11.7 7.39376 12.0792L5.60626 11.2667L4.84793 12.6208L6.41876 13.8125C6.27432 14.2278 6.19758 14.6792 6.18856 15.1667C6.17953 15.6542 6.25626 16.1056 6.41876 16.5208L4.84793 17.7125L5.60626 19.0667L7.39376 18.2542C7.75488 18.6333 8.1205 18.9358 8.49064 19.1615C8.86078 19.3872 9.30765 19.5722 9.83127 19.7167L10.0479 21.6667Z" fill="#4C28E7"/>
</g>
</svg>
