<svg width="52" height="52" viewBox="0 0 52 52" fill="none" xmlns="http://www.w3.org/2000/svg">
<mask id="mask0_261_492" style="mask-type:alpha" maskUnits="userSpaceOnUse" x="0" y="0" width="52" height="52">
<rect width="52" height="52" fill="#D9D9D9"/>
</mask>
<g mask="url(#mask0_261_492)">
<path d="M26 47.9921C23.0027 47.9921 20.168 47.4143 17.4958 46.2588C14.8236 45.1032 12.4854 43.5234 10.4812 41.5192C8.47705 39.515 6.89719 37.1768 5.74163 34.5046C4.58608 31.8324 4.0083 28.9977 4.0083 26.0005C4.0083 22.931 4.59511 20.0511 5.76872 17.3609C6.94233 14.6706 8.54025 12.3414 10.5625 10.3734C12.5847 8.40532 14.968 6.85254 17.7125 5.71504C20.4569 4.57754 23.3819 4.00879 26.4875 4.00879C29.3764 4.00879 32.1208 4.49629 34.7208 5.47129C37.3208 6.44629 39.6048 7.79143 41.5729 9.50671C43.5409 11.222 45.1027 13.2713 46.2583 15.6546C47.4139 18.038 47.9916 20.638 47.9916 23.4546C47.9916 27.3907 46.8541 30.5324 44.5791 32.8796C42.3041 35.2268 39.2347 36.4005 35.3708 36.4005H31.525C30.9111 36.4005 30.3694 36.6532 29.9 37.1588C29.4305 37.6643 29.1958 38.206 29.1958 38.7838C29.1958 39.506 29.4395 40.147 29.927 40.7067C30.4145 41.2664 30.6583 41.9977 30.6583 42.9005C30.6583 43.8755 30.1798 44.9678 29.2229 46.1775C28.2659 47.3873 27.1916 47.9921 26 47.9921ZM13.4875 27.4088C14.2097 27.4088 14.8416 27.138 15.3833 26.5963C15.925 26.0546 16.1958 25.4227 16.1958 24.7005C16.1958 23.9782 15.925 23.3463 15.3833 22.8046C14.8416 22.263 14.2097 21.9921 13.4875 21.9921C12.7652 21.9921 12.1333 22.263 11.5916 22.8046C11.05 23.3463 10.7791 23.9782 10.7791 24.7005C10.7791 25.4227 11.05 26.0546 11.5916 26.5963C12.1333 27.138 12.7652 27.4088 13.4875 27.4088ZM20.2583 18.3088C20.9805 18.3088 21.6125 18.038 22.1541 17.4963C22.6958 16.9546 22.9666 16.3227 22.9666 15.6005C22.9666 14.8421 22.6958 14.2011 22.1541 13.6775C21.6125 13.1539 20.9805 12.8921 20.2583 12.8921C19.5361 12.8921 18.9041 13.1539 18.3625 13.6775C17.8208 14.2011 17.55 14.8421 17.55 15.6005C17.55 16.3227 17.8208 16.9546 18.3625 17.4963C18.9041 18.038 19.5361 18.3088 20.2583 18.3088ZM31.7416 18.3088C32.4639 18.3088 33.0958 18.038 33.6375 17.4963C34.1791 16.9546 34.45 16.3227 34.45 15.6005C34.45 14.8421 34.1791 14.2011 33.6375 13.6775C33.0958 13.1539 32.4639 12.8921 31.7416 12.8921C31.0194 12.8921 30.3875 13.1539 29.8458 13.6775C29.3041 14.2011 29.0333 14.8421 29.0333 15.6005C29.0333 16.3227 29.3041 16.9546 29.8458 17.4963C30.3875 18.038 31.0194 18.3088 31.7416 18.3088ZM38.7291 27.4088C39.4514 27.4088 40.0833 27.138 40.625 26.5963C41.1666 26.0546 41.4375 25.4227 41.4375 24.7005C41.4375 23.9782 41.1666 23.3463 40.625 22.8046C40.0833 22.263 39.4514 21.9921 38.7291 21.9921C38.0069 21.9921 37.375 22.263 36.8333 22.8046C36.2916 23.3463 36.0208 23.9782 36.0208 24.7005C36.0208 25.4227 36.2916 26.0546 36.8333 26.5963C37.375 27.138 38.0069 27.4088 38.7291 27.4088Z" fill="#161718"/>
</g>
</svg>
