<svg width="48" height="48" viewBox="0 0 48 48" fill="none" xmlns="http://www.w3.org/2000/svg">
<mask id="mask0_315_616" style="mask-type:alpha" maskUnits="userSpaceOnUse" x="0" y="0" width="48" height="48">
<rect width="48" height="48" fill="#D9D9D9"/>
</mask>
<g mask="url(#mask0_315_616)">
<path d="M14.35 12.1498C13.65 12.1498 13.0583 12.3915 12.575 12.8748C12.0917 13.3581 11.85 13.9498 11.85 14.6498C11.85 15.3498 12.0917 15.9415 12.575 16.4248C13.0583 16.9081 13.65 17.1498 14.35 17.1498C15.05 17.1498 15.6417 16.9081 16.125 16.4248C16.6083 15.9415 16.85 15.3498 16.85 14.6498C16.85 13.9498 16.6083 13.3581 16.125 12.8748C15.6417 12.3915 15.05 12.1498 14.35 12.1498ZM14.35 32.8498C13.65 32.8498 13.0583 33.0915 12.575 33.5748C12.0917 34.0581 11.85 34.6498 11.85 35.3498C11.85 36.0498 12.0917 36.6415 12.575 37.1248C13.0583 37.6081 13.65 37.8498 14.35 37.8498C15.05 37.8498 15.6417 37.6081 16.125 37.1248C16.6083 36.6415 16.85 36.0498 16.85 35.3498C16.85 34.6498 16.6083 34.0581 16.125 33.5748C15.6417 33.0915 15.05 32.8498 14.35 32.8498ZM7.7 6.0498H40.25C40.7833 6.0498 41.2083 6.20814 41.525 6.5248C41.8417 6.84147 42 7.26647 42 7.7998V21.2498C42 21.8165 41.8417 22.2998 41.525 22.6998C41.2083 23.0998 40.7833 23.2998 40.25 23.2998H7.7C7.2 23.2998 6.79167 23.0998 6.475 22.6998C6.15833 22.2998 6 21.8165 6 21.2498V7.7998C6 7.26647 6.15833 6.84147 6.475 6.5248C6.79167 6.20814 7.2 6.0498 7.7 6.0498ZM7.7 26.6998H40.05C40.55 26.6998 41 26.9081 41.4 27.3248C41.8 27.7415 42 28.2165 42 28.7498V41.9498C42 42.6165 41.8 43.1248 41.4 43.4748C41 43.8248 40.55 43.9998 40.05 43.9998H7.95C7.41667 43.9998 6.95833 43.8248 6.575 43.4748C6.19167 43.1248 6 42.6165 6 41.9498V28.7498C6 28.2165 6.15833 27.7415 6.475 27.3248C6.79167 26.9081 7.2 26.6998 7.7 26.6998Z" fill="#1C1B1F"/>
</g>
</svg>
