<svg width="48" height="48" viewBox="0 0 48 48" fill="none" xmlns="http://www.w3.org/2000/svg">
<mask id="mask0_315_592" style="mask-type:alpha" maskUnits="userSpaceOnUse" x="0" y="0" width="48" height="48">
<rect width="48" height="48" fill="#D9D9D9"/>
</mask>
<g mask="url(#mask0_315_592)">
<path d="M24 42V38.45L34.55 27.9L38.1 31.45L27.55 42H24ZM6 31.5V28.5H21V31.5H6ZM40.25 29.3L36.7 25.75L38.15 24.3C38.4167 24.0333 38.7667 23.9 39.2 23.9C39.6333 23.9 39.9833 24.0333 40.25 24.3L41.7 25.75C41.9667 26.0167 42.1 26.3667 42.1 26.8C42.1 27.2333 41.9667 27.5833 41.7 27.85L40.25 29.3ZM6 23.25V20.25H29.5V23.25H6ZM6 15V12H29.5V15H6Z" fill="#1C1B1F"/>
</g>
</svg>
